<svg width="70" height="68" viewBox="0 0 70 68" fill="none" xmlns="http://www.w3.org/2000/svg">
<ellipse cx="34.8322" cy="33.2564" rx="23.2499" ry="23.2502" transform="rotate(-90 34.8322 33.2564)" fill="#28F1A7"/>
<path d="M13.9051 43.6029C15.2137 46.0279 16.071 47.2844 17.7413 49.1829L13.9727 54.817C22.2325 50.716 49.5712 22.8043 56.288 12.5021L50.7566 16.1675L45.5253 12.5021C49.8212 9.28379 58.0398 4.92085 61.8004 6.51922C66.3342 9.19299 60.8704 21.1667 42.2703 39.9991C25.1814 58.8316 10.8906 63.4839 7.57886 61.5595C5.04849 59.3546 7.34887 52.6509 13.9051 43.6029Z" fill="#3AAF85"/>
<path d="M2.96783 64.6195L3.76404 63.8247L3.76404 63.8247L2.96783 64.6195ZM44.9667 42.8695L45.7517 43.6753C45.7569 43.6703 45.7621 43.6652 45.7671 43.66L44.9667 42.8695ZM65.9646 2.38244L66.5111 1.39905C66.4624 1.37199 66.4117 1.34859 66.3596 1.32904L65.9646 2.38244ZM39.8118 11.205L38.8954 11.8577L40.2007 13.6904L41.117 13.0378L39.8118 11.205ZM11.8407 37.6623C6.89107 43.7604 3.71953 49.7782 2.12224 54.6536C1.32491 57.0872 0.907163 59.2748 0.876829 61.0681C0.847491 62.8024 1.17779 64.4187 2.17163 65.4143L3.76404 63.8247C3.43272 63.4928 3.10013 62.6656 3.12651 61.1062C3.15189 59.6057 3.50847 57.6492 4.26041 55.3541C5.76166 50.7718 8.78846 44.993 13.5877 39.0803L11.8407 37.6623ZM2.17163 65.4143C3.67581 66.9212 7.3461 68.5932 14.1893 66.3446C20.9906 64.1097 31.0757 57.9719 45.7517 43.6753L44.1817 42.0636C29.6009 56.2674 19.8095 62.1295 13.487 64.207C7.20643 66.2708 4.50571 64.5677 3.76404 63.8247L2.17163 65.4143ZM45.7671 43.66C55.1158 34.1946 62.1341 24.9194 65.9716 17.4863C67.8842 13.7819 69.0522 10.4486 69.2685 7.73175C69.4862 4.99653 68.7356 2.63505 66.5111 1.39905L65.4182 3.36584C66.5687 4.0051 67.2059 5.28807 67.0256 7.55322C66.8438 9.83677 65.8281 12.8597 63.9724 16.4542C60.2734 23.6188 53.4178 32.7119 44.1663 42.0789L45.7671 43.66ZM66.3596 1.32904C64.5463 0.649216 62.2649 0.801999 59.9373 1.33248C57.5744 1.87101 54.9907 2.84035 52.4695 3.98128C47.4265 6.2634 42.4886 9.29864 39.8118 11.205L41.117 13.0378C43.6903 11.2051 48.5025 8.24611 53.3971 6.03116C55.8447 4.92355 58.2767 4.01864 60.4372 3.52623C62.6331 3.02578 64.383 2.99094 65.5697 3.43585L66.3596 1.32904Z" fill="#3B8167"/>
<path d="M13.7989 39.3281C13.7118 39.339 13.8233 39.5406 13.8233 39.5723" stroke="#28F1A7" stroke-width="1.5" stroke-linecap="round"/>
<path d="M13.2866 38.5718C13.2866 38.6358 13.2665 38.7323 13.3124 38.782C13.359 38.8325 13.4112 38.9454 13.4331 39.0113" stroke="#28F1A7" stroke-width="1.5" stroke-linecap="round"/>
<path d="M12.8477 38.2788C12.8477 38.4187 12.8422 38.4853 12.94 38.5908C13.0006 38.6563 13.0126 38.7411 13.1027 38.7861C13.1944 38.832 13.2671 38.916 13.3605 38.9679C13.4319 39.0076 13.4495 39.1537 13.4948 39.208C13.5233 39.2423 13.4888 39.2961 13.5178 39.3287C13.5465 39.361 13.57 39.3725 13.5816 39.4128C13.5933 39.4539 13.668 39.5554 13.7037 39.5851C13.7966 39.6625 13.8309 39.7907 13.922 39.8754C14.0028 39.9503 14.0588 40.1076 14.1662 40.1345" stroke="#28F1A7" stroke-width="1.5" stroke-linecap="round"/>
<path d="M13.922 39.1091C14.0282 39.3427 14.1633 39.5604 14.2584 39.7982C14.3395 40.001 14.4591 40.2102 14.4591 40.4412C14.4591 40.5952 14.4132 40.4744 14.3479 40.4398C14.276 40.4017 14.2117 40.3452 14.1553 40.2919C14.0202 40.1644 14.1092 39.9315 13.9464 39.8036C13.8627 39.7379 13.8309 39.5916 13.785 39.4998C13.7548 39.4395 13.6796 39.3973 13.6534 39.3383C13.5462 39.0973 13.3204 38.9168 13.2085 38.6805C13.1306 38.5161 13.0186 38.5789 13.0186 38.7551C13.0186 38.9157 13.0592 39.0566 13.1651 39.1824C13.2103 39.2361 13.1676 39.3076 13.2085 39.3587C13.2447 39.404 13.2417 39.4796 13.2817 39.5296C13.3666 39.6358 13.4078 39.7781 13.496 39.8904C13.6084 40.0335 13.5673 40.1931 13.648 40.3543C13.684 40.4264 13.7681 40.455 13.8053 40.5253C13.822 40.5567 13.8908 40.6378 13.8962 40.6623C13.9095 40.722 13.9777 40.7515 14.0318 40.7816C14.0852 40.8113 14.1304 40.9197 14.1431 40.977C14.1898 41.1871 14.3129 41.3671 14.5134 41.4531C14.703 41.5343 14.7961 41.7579 15.0072 41.7963C15.1647 41.8249 15.211 42.1367 15.3626 42.1367" stroke="#28F1A7" stroke-width="1.5" stroke-linecap="round"/>
<path d="M14.8242 39.8408C14.9508 40.2613 15.2793 40.5231 15.4346 40.9287C15.5569 41.248 15.7239 41.5589 15.8768 41.8647C15.9759 42.0629 16.1256 42.3036 16.3136 42.429" stroke="#28F1A7" stroke-width="1.5" stroke-linecap="round"/>
<path d="M16.0461 39.6211C15.9776 39.8762 15.8792 40.2112 15.9484 40.4743C15.993 40.6439 16.0405 40.8134 16.0813 40.9843C16.1414 41.2356 16.2658 41.4845 16.2658 41.7453" stroke="#28F1A7" stroke-width="1.5" stroke-linecap="round"/>
<path d="M15.2883 42.6002C15.2024 42.6097 15.1384 42.6734 15.0442 42.6734C14.9295 42.6734 14.9014 42.6366 14.8122 42.5771C14.7381 42.5277 14.6201 42.4324 14.6047 42.3438C14.5911 42.2656 14.5335 42.2361 14.4948 42.1715C14.4535 42.1027 14.4214 42.0292 14.3795 41.9599C14.2738 41.7851 14.1488 41.6028 14.0919 41.4038C14.0651 41.31 14.003 41.2244 13.9753 41.1243C13.9351 40.9798 13.7745 40.8065 13.7745 40.6591C13.7745 40.6084 13.7012 40.5753 13.7012 40.5004C13.7012 40.4162 13.6524 40.3446 13.6524 40.2562C13.6524 40.1054 13.6474 39.873 13.5737 39.738C13.5069 39.6154 13.4938 39.4766 13.4381 39.3528C13.3993 39.2666 13.4095 39.1146 13.335 39.0476C13.2241 38.9477 13.1731 38.7098 13.103 38.5837C13.091 38.562 13.0627 38.3177 13.0434 38.4724C13.0303 38.5766 13.0332 38.7042 13.0664 38.8021C13.1125 38.9377 13.1641 39.01 13.1641 39.152C13.1641 39.2506 13.1885 39.3439 13.1885 39.4396C13.1885 39.6751 13.2535 39.9326 13.3241 40.1612C13.3539 40.2575 13.4055 40.3102 13.4679 40.3905C13.5467 40.4917 13.5724 40.5381 13.5982 40.6767C13.6143 40.7635 13.6737 40.8582 13.6768 40.9453C13.6809 41.0584 13.7272 41.0907 13.8098 41.1379C13.9899 41.2408 13.9738 41.4793 14.1638 41.6099C14.2282 41.6542 14.3579 41.821 14.3971 41.8907C14.474 42.0273 14.4537 42.1655 14.4582 42.3207C14.461 42.4182 14.5179 42.5244 14.5857 42.5947C14.6136 42.6236 14.6658 42.7029 14.6928 42.7209C14.7527 42.7608 14.951 42.9931 14.9221 42.8199" stroke="#28F1A7" stroke-width="1.5" stroke-linecap="round"/>
<path d="M39.2734 12.141C39.9829 12.1756 40.5672 12.4557 41.2111 12.7087C41.4559 12.8049 41.6779 12.9803 41.9187 13.0666C42.2077 13.1702 42.5167 13.2033 42.7991 13.3258C43.0711 13.4437 43.3044 13.6219 43.6054 13.6219C43.8028 13.6219 44.0003 13.6219 44.1978 13.6219C44.3172 13.6219 44.4538 13.653 44.3089 13.5767C44.039 13.4347 43.7841 13.2708 43.5025 13.1406C43.3595 13.0745 43.2398 12.9745 43.0953 12.9103C42.9447 12.8433 42.8004 12.795 42.6798 12.6799C42.4998 12.5081 42.1945 12.4035 41.9804 12.2726C41.8272 12.179 41.6356 12.0499 41.4559 12.0319C41.219 12.0083 41.0261 12.178 40.775 12.178C40.5212 12.178 40.2288 12.1346 39.9851 12.2068C39.9033 12.231 39.3368 12.2891 39.6087 12.2891C39.8542 12.2891 40.0216 12.2319 40.234 12.108C40.459 11.9768 40.7693 12.0864 40.9622 12.215C41.1986 12.3726 41.4112 12.5458 41.6245 12.7313C41.7823 12.8684 42.0012 13.1829 42.0133 13.3998C42.0243 13.5979 42.0212 13.875 42.0956 14.058C42.1261 14.1332 42.3843 14.6044 42.5234 14.4653C42.5778 14.4109 42.4768 14.1788 42.4494 14.1321C42.2602 13.8097 41.9829 13.5291 41.7171 13.2702C41.5445 13.1022 41.491 12.9001 41.2687 12.7889C41.0611 12.6851 40.8298 12.636 40.629 12.5297C40.3902 12.4033 40.1581 12.2211 39.9769 12.0299C39.9223 11.9723 39.8484 11.8955 39.8082 11.8365C39.7254 11.7147 39.7928 11.6807 39.9029 11.6226C39.9934 11.5748 40.1338 11.4089 40.2443 11.4457C40.3838 11.4922 40.5145 11.5486 40.6639 11.5486C40.7667 11.5486 40.7867 11.6441 40.8676 11.6576C40.967 11.6742 41.0799 11.6596 41.1802 11.6596C41.3496 11.6596 41.5274 11.8333 41.643 11.9373C41.774 12.0552 41.8361 12.2891 42.0688 12.2891C42.3067 12.2891 42.4637 12.5112 42.7168 12.5112C42.9852 12.5112 43.2406 12.5798 43.5149 12.5853C43.7058 12.5891 43.8543 12.7225 44.0291 12.7724C44.1218 12.7989 44.29 13.01 44.3109 13.083C44.3233 13.1263 44.4355 13.1556 44.4714 13.1777C44.5366 13.2178 44.5653 13.3111 44.6256 13.3628C44.7591 13.4772 44.8534 13.6241 44.9835 13.733C45.0918 13.8237 45.8637 14.3045 45.3826 14.4283C44.8159 14.574 44.1749 14.4499 43.6239 14.3275C43.1922 14.2315 42.757 14.1254 42.3157 14.0868C42.1517 14.0725 41.9147 14.0232 41.7541 14.0889C41.6621 14.1265 41.6005 14.1773 41.497 14.1773C41.3291 14.1773 41.1857 14 41.1329 13.8359C41.0701 13.6405 41.2289 13.5675 41.3839 13.5109C41.4796 13.4759 41.5834 13.4182 41.6636 13.3545C41.7129 13.3154 41.734 13.2266 41.643 13.2682C41.2299 13.457 40.8064 13.5199 40.3862 13.6775C40.2219 13.7391 40.1407 13.7919 40.3369 13.8791C40.7232 14.0508 41.3479 13.813 41.7171 13.6939C41.9834 13.608 43.2667 12.9392 43.4573 13.5109" stroke="#28F1A7" stroke-width="1.5" stroke-linecap="round"/>
<ellipse cx="23.4383" cy="18.8421" rx="2.32502" ry="2.32499" fill="#3AAF85"/>
<ellipse cx="19.2528" cy="25.8167" rx="2.32502" ry="2.32499" fill="#3AAF85"/>
<ellipse cx="26.2293" cy="25.8167" rx="2.32502" ry="2.32499" fill="#3AAF85"/>
</svg>
