<svg version="1.1" xmlns="http://www.w3.org/2000/svg" xmlns:xlink="http://www.w3.org/1999/xlink" width="24px" height="24px" viewBox="0,0,256,256"><g fill="#28feaf" fill-rule="nonzero" stroke="none" stroke-width="1" stroke-linecap="butt" stroke-linejoin="miter" stroke-miterlimit="10" stroke-dasharray="" stroke-dashoffset="0" font-family="none" font-weight="none" font-size="none" text-anchor="none" style="mix-blend-mode: normal"><g transform="translate(0.00533,0) scale(10.66667,10.66667)"><path d="M15.852,8.981h-4.588v-8.981h4.588c2.476,0 4.49,2.014 4.49,4.49c0,2.476 -2.014,4.491 -4.49,4.491zM12.735,7.51h3.117c1.665,0 3.019,-1.355 3.019,-3.019c0,-1.664 -1.355,-3.019 -3.019,-3.019h-3.117zM12.735,8.981h-4.587c-2.476,0 -4.49,-2.014 -4.49,-4.49c0,-2.476 2.014,-4.491 4.49,-4.491h4.588v8.981zM8.148,1.471c-1.665,0 -3.019,1.355 -3.019,3.019c0,1.664 1.354,3.02 3.019,3.02h3.117v-6.039zM12.735,16.49h-4.587c-2.476,0 -4.49,-2.014 -4.49,-4.49c0,-2.476 2.014,-4.49 4.49,-4.49h4.588v8.98zM8.148,8.981c-1.665,0 -3.019,1.355 -3.019,3.019c0,1.664 1.355,3.019 3.019,3.019h3.117v-6.038zM8.172,24c-2.489,0 -4.515,-2.014 -4.515,-4.49c0,-2.476 2.014,-4.49 4.49,-4.49h4.588v4.441c0,2.503 -2.047,4.539 -4.563,4.539zM8.148,16.49c-1.66643,0.0022 -3.0168,1.35257 -3.019,3.019c0,1.665 1.365,3.019 3.044,3.019c1.705,0 3.093,-1.376 3.093,-3.068v-2.97zM15.852,16.49h-0.098c-2.476,0 -4.49,-2.014 -4.49,-4.49c0,-2.476 2.014,-4.49 4.49,-4.49h0.098c2.476,0 4.49,2.014 4.49,4.49c0,2.476 -2.014,4.49 -4.49,4.49zM15.755,8.981c-1.665,0 -3.019,1.355 -3.019,3.019c0,1.664 1.355,3.019 3.019,3.019h0.098c1.665,0 3.019,-1.355 3.019,-3.019c0,-1.664 -1.355,-3.019 -3.019,-3.019z"></path></g></g></svg>